<svg xmlns="http://www.w3.org/2000/svg" width="32.319" height="23.217" viewBox="0 0 32.319 23.217">
  <g id="_31625481016366512595440" data-name="31625481016366512595440" transform="translate(-7.5 -14.4)" opacity="0.5">
    <path id="Path_35" data-name="Path 35" d="M31.489,33.947a.989.989,0,0,1-.989-.989V26.89a.989.989,0,1,1,1.979,0v6.068a.989.989,0,0,1-.989.989Z" transform="translate(-7.83 -3.915)" fill="#efe8ff"/>
    <path id="Path_36" data-name="Path 36" d="M25.739,35.048a.989.989,0,0,1-.989-.989V23.44a.989.989,0,1,1,1.979,0V34.026a.989.989,0,0,1-.989,1.022Z" transform="translate(-5.872 -2.74)" fill="#efe8ff"/>
    <path id="Path_37" data-name="Path 37" d="M19.989,36.149A.989.989,0,0,1,19,35.159V19.989a.989.989,0,1,1,1.979,0v15.17a.989.989,0,0,1-.989.989Z" transform="translate(-3.915 -1.565)" fill="#efe8ff"/>
    <path id="Path_38" data-name="Path 38" d="M14.239,37.617a.989.989,0,0,1-.989-.989V15.39a.989.989,0,0,1,1.979,0V36.628a.989.989,0,0,1-.989.989Z" transform="translate(-1.957 0)" fill="#efe8ff"/>
    <path id="Path_39" data-name="Path 39" d="M8.489,33.947a.989.989,0,0,1-.989-.989V26.89a.989.989,0,1,1,1.979,0v6.068a.989.989,0,0,1-.989.989Z" transform="translate(0 -3.915)" fill="#efe8ff"/>
    <path id="Path_40" data-name="Path 40" d="M54.489,33.947a.989.989,0,0,1-.989-.989V26.89a.989.989,0,1,1,1.979,0v6.068a.989.989,0,0,1-.989.989Z" transform="translate(-15.66 -3.915)" fill="#efe8ff"/>
    <path id="Path_41" data-name="Path 41" d="M48.739,37.617a.989.989,0,0,1-.989-.989V15.39a.989.989,0,0,1,1.979,0V36.628a.989.989,0,0,1-.989.989Z" transform="translate(-13.702 0)" fill="#efe8ff"/>
    <path id="Path_42" data-name="Path 42" d="M42.989,36.149A.989.989,0,0,1,42,35.159V19.989a.989.989,0,1,1,1.979,0v15.17a.989.989,0,0,1-.989.989Z" transform="translate(-11.745 -1.565)" fill="#efe8ff"/>
    <path id="Path_43" data-name="Path 43" d="M37.239,35.048a.989.989,0,0,1-.989-.989V23.44a.989.989,0,1,1,1.979,0V34.026a.989.989,0,0,1-.989,1.022Z" transform="translate(-9.787 -2.74)" fill="#efe8ff"/>
  </g>
</svg>
