<?xml version="1.0" encoding="UTF-8" standalone="no"?> <svg xmlns="http://www.w3.org/2000/svg" xmlns:xlink="http://www.w3.org/1999/xlink" viewBox="0 0 64 64"><defs><style>.cls-1{fill:url(#linear-gradient);}.cls-2{fill:url(#linear-gradient-2);}.cls-3{fill:url(#linear-gradient-3);}.cls-4{fill:url(#linear-gradient-4);}.cls-5{fill:url(#linear-gradient-5);}.cls-6{fill:url(#linear-gradient-6);}.cls-7{fill:url(#linear-gradient-7);}.cls-8{fill:url(#linear-gradient-8);}</style><linearGradient id="linear-gradient" x1="58" y1="31.91" x2="62" y2="31.91" gradientUnits="userSpaceOnUse"><stop offset="0" stop-color="#17a6d7"/><stop offset="1" stop-color="#9d31fe"/></linearGradient><linearGradient id="linear-gradient-2" x1="50" y1="31.91" x2="54" y2="31.91" xlink:href="#linear-gradient"/><linearGradient id="linear-gradient-3" x1="42" y1="31.91" x2="46" y2="31.91" xlink:href="#linear-gradient"/><linearGradient id="linear-gradient-4" x1="34" y1="31.91" x2="38" y2="31.91" xlink:href="#linear-gradient"/><linearGradient id="linear-gradient-5" x1="26" y1="31.91" x2="30" y2="31.91" xlink:href="#linear-gradient"/><linearGradient id="linear-gradient-6" x1="18" y1="31.91" x2="22" y2="31.91" xlink:href="#linear-gradient"/><linearGradient id="linear-gradient-7" x1="10" y1="31.91" x2="14" y2="31.91" xlink:href="#linear-gradient"/><linearGradient id="linear-gradient-8" x1="2" y1="31.91" x2="6" y2="31.91" xlink:href="#linear-gradient"/></defs><g id="Layer_101" data-name="Layer 101"><path class="cls-1" d="M60,22.74a2,2,0,0,0-2,2V39.08a2,2,0,0,0,4,0V24.74A2,2,0,0,0,60,22.74Z"/><path class="cls-2" d="M52,6.18a2,2,0,0,0-2,2V55.63a2,2,0,0,0,4,0V8.18A2,2,0,0,0,52,6.18Z"/><path class="cls-3" d="M44,13.91a2,2,0,0,0-2,2v32a2,2,0,0,0,4,0v-32A2,2,0,0,0,44,13.91Z"/><path class="cls-4" d="M36,22.74a2,2,0,0,0-2,2V39.08a2,2,0,0,0,4,0V24.74A2,2,0,0,0,36,22.74Z"/><path class="cls-5" d="M28,17.88a2,2,0,0,0-2,2V43.94a2,2,0,0,0,4,0V19.88A2,2,0,0,0,28,17.88Z"/><path class="cls-6" d="M20,10.38a2,2,0,0,0-2,2V51.44a2,2,0,0,0,4,0V12.38A2,2,0,0,0,20,10.38Z"/><path class="cls-7" d="M12,17.88a2,2,0,0,0-2,2V43.94a2,2,0,0,0,4,0V19.88A2,2,0,0,0,12,17.88Z"/><path class="cls-8" d="M4,23.71a2,2,0,0,0-2,2V38.1a2,2,0,0,0,4,0V25.71A2,2,0,0,0,4,23.71Z"/></g></svg>