<?xml version="1.0" encoding="utf-8"?>
<!-- Generator: Adobe Illustrator 27.1.1, SVG Export Plug-In . SVG Version: 6.00 Build 0)  -->
<svg version="1.1" id="Layer_1" xmlns="http://www.w3.org/2000/svg" xmlns:xlink="http://www.w3.org/1999/xlink" x="0px" y="0px"
	 viewBox="0 0 512 512" style="enable-background:new 0 0 512 512;" xml:space="preserve">
<g id="user">
	<g>
		<circle cx="256" cy="213.4" r="73.5"/>
		<path d="M184.7,286.8c0.1,0,0.1,0.1,0.1,0.1c-0.1,0-0.1,0-0.1,0.1c0,0-0.1-0.1-0.1-0.1C184.6,286.9,184.6,286.8,184.7,286.8z"/>
		<path d="M327.5,286.9c0,0.1-0.1,0.1-0.2,0.2c-0.1,0-0.1-0.1-0.2-0.1c0.1-0.1,0.1-0.1,0.2-0.2C327.4,286.8,327.4,286.8,327.5,286.9
			z"/>
		<path d="M360.8,296.9v74.2H150.9v-74.2c0-19.2,15.5-34.7,34.7-34.7h4.1c15,20.8,39.1,33.4,66.2,33.4s51.2-12.6,66.2-33.4h3.8
			C345.3,262.2,360.8,277.7,360.8,296.9z"/>
	</g>
</g>
<g id="Layer_1_00000000190884597010216880000014055033317927145860_">
</g>
</svg>
