<?xml version="1.0" encoding="UTF-8"?>
<svg id="Layer_1" data-name="Layer 1" xmlns="http://www.w3.org/2000/svg" viewBox="0 0 50.77 64.62" fill="white">
  <path d="m50.77,30c0-1.27-1.03-2.31-2.31-2.31s-2.31,1.03-2.31,2.31c0,11.47-9.3,20.77-20.77,20.77S4.62,41.47,4.62,30c0-1.27-1.03-2.31-2.31-2.31s-2.31,1.03-2.31,2.31c.02,13.12,10.02,24.06,23.08,25.27v4.73h-11.54c-1.27,0-2.31,1.03-2.31,2.31s1.03,2.31,2.31,2.31h27.69c1.27,0,2.31-1.03,2.31-2.31s-1.03-2.31-2.31-2.31h-11.54v-4.73c13.06-1.2,23.06-12.15,23.08-25.27Z"/>
  <path d="m29.2,28.82h5.65c.56,0,.94-.38.94-.94s-.38-.94-.94-.94h-5.65c-.56,0-.94.38-.94.94s.38.94.94.94Z"/>
  <path d="m28.26,31.65h7.53c.56,0,.94-.38.94-.94s-.38-.94-.94-.94h-7.53c-.56,0-.94.38-.94.94s.38.94.94.94Z"/>
  <path d="m27.32,34.47h7.53c.56,0,.94-.38.94-.94s-.38-.94-.94-.94h-7.53c-.56,0-.94.38-.94.94s.38.94.94.94Z"/>
  <path d="m25.39,46.16c8.92,0,16.15-7.23,16.15-16.15v-13.85C41.53,7.24,34.3.01,25.39,0,16.47.01,9.24,7.24,9.23,16.15v13.85c0,8.92,7.23,16.15,16.15,16.15Zm0-41.54c1.27,0,2.31,1.03,2.31,2.31s-1.03,2.31-2.31,2.31c-3.82,0-6.92,3.1-6.92,6.92,0,1.27-1.03,2.31-2.31,2.31s-2.31-1.03-2.31-2.31c0-6.37,5.17-11.53,11.54-11.54Zm-11.91,29.48s.09-.09.19-.09c1.41,1.41,3.39,2.35,5.65,2.35,1.98,0,3.77-.75,5.18-1.88h-3.77c-.56,0-.94-.38-.94-.94s.38-.94.94-.94h5.37c.19-.28.28-.66.47-.94h-3.24c-.56,0-.94-.38-.94-.94s.38-.94.94-.94h3.9c0-.28.09-.66.09-.94h-1.93c-.56,0-.94-.38-.94-.94s.38-.94.94-.94h1.93c-.66-3.39-3.29-6.02-6.68-6.5-.09-.19-.19-.38-.19-.56,0-.47.28-.85.66-.94h.09c.19-.09.47-.09.66-.19,6.21-1.32,12.43,2.26,14.31,8.19h1.51c.56,0,.94.38.94.94s-.38.94-.94.94h-1.13c0,.28.09.66.09.94h2.92c.56,0,.85.47.85,1.04s-.38.94-.94.94h-2.82c0,.28,0,.66-.09.94h.19c.56,0,.94.38.94.94s-.38.94-.94.94h-.56c-.38,1.04-.75,1.98-1.32,2.82-1.69,2.73-4.42,4.61-7.63,5.37-.94.19-1.79.28-2.73.28-4.9,0-9.41-3.01-11.3-7.81-.19-.47-.09-.85.28-1.13Z"/>
</svg>